<?xml version="1.0" encoding="UTF-8"?>
<svg width="24px" height="21px" viewBox="0 0 24 21" version="1.1" xmlns="http://www.w3.org/2000/svg" xmlns:xlink="http://www.w3.org/1999/xlink">
    <!-- Generator: sketchtool 50.2 (55047) - http://www.bohemiancoding.com/sketch -->
    <title>58A721FC-34E5-4278-947A-14461F24F0CD</title>
    <desc>Created with sketchtool.</desc>
    <defs></defs>
    <g id="Page-1" stroke="none" stroke-width="1" fill="none" fill-rule="evenodd">
        <g id="Dashboard" transform="translate(-112.000000, -165.000000)" fill="#1E87F0" fill-rule="nonzero">
            <g id="Group-9" transform="translate(112.000000, 157.000000)">
                <g id="wave" transform="translate(0.000000, 8.000000)">
                    <path d="M23,10 L18.177,10 L16.428,5.628 C16.264,5.22 15.852,4.969 15.415,5.003 C14.977,5.041 14.614,5.361 14.522,5.791 L12.648,14.532 L10.488,0.844 C10.415,0.383 10.033,0.033 9.568,0.002 C9.098,-0.029 8.676,0.266 8.542,0.714 L5.756,10 L1,10 C0.448,10 0,10.448 0,11 C0,11.552 0.448,12 1,12 L6.5,12 C6.942,12 7.331,11.71 7.458,11.287 L9.197,5.491 L11.512,20.156 C11.587,20.632 11.991,20.986 12.472,20.999 C12.482,21 12.491,21 12.5,21 C12.97,21 13.378,20.671 13.477,20.209 L15.789,9.418 L16.57,11.371 C16.723,11.752 17.091,12 17.5,12 L23,12 C23.552,12 24,11.552 24,11 C24,10.448 23.552,10 23,10 Z" id="Shape"></path>
                </g>
            </g>
        </g>
    </g>
</svg>
